<svg width="20" height="22" viewBox="0 0 20 22" fill="none" xmlns="http://www.w3.org/2000/svg">
<path id="Vector" fill-rule="evenodd" clip-rule="evenodd" d="M10.0083 0.416748C4.47396 0.416748 0 5.15284 0 11.012C0 15.6956 2.86662 19.6601 6.84338 21.0633C7.34058 21.1688 7.5227 20.8353 7.5227 20.5548C7.5227 20.3092 7.50631 19.4672 7.50631 18.59C4.72225 19.2216 4.14249 17.327 4.14249 17.327C3.69508 16.099 3.03215 15.7834 3.03215 15.7834C2.12092 15.1344 3.09852 15.1344 3.09852 15.1344C4.1093 15.2045 4.63969 16.2219 4.63969 16.2219C5.53432 17.8357 6.97592 17.3797 7.55588 17.099C7.63865 16.4148 7.90394 15.9412 8.18563 15.6782C5.96514 15.4325 3.62891 14.5204 3.62891 10.4506C3.62891 9.29283 4.02634 8.34561 4.65608 7.60893C4.55672 7.34587 4.20866 6.25807 4.75564 4.80215C4.75564 4.80215 5.60069 4.52143 7.5061 5.88973C8.32188 5.65781 9.16317 5.53982 10.0083 5.53883C10.8533 5.53883 11.7148 5.66175 12.5102 5.88973C14.4159 4.52143 15.2609 4.80215 15.2609 4.80215C15.8079 6.25807 15.4596 7.34587 15.3603 7.60893C16.0066 8.34561 16.3876 9.29283 16.3876 10.4506C16.3876 14.5204 14.0514 15.4149 11.8143 15.6782C12.179 16.0114 12.4936 16.6428 12.4936 17.6428C12.4936 19.0636 12.4773 20.2039 12.4773 20.5546C12.4773 20.8353 12.6596 21.1688 13.1566 21.0635C17.1333 19.6599 20 15.6956 20 11.012C20.0163 5.15284 15.526 0.416748 10.0083 0.416748Z" fill="#24292F"/>
</svg>
