<svg width="20" height="21" viewBox="0 0 20 21" fill="none" xmlns="http://www.w3.org/2000/svg">
<g id="logo">
<g id="Group 3019">
<path id="Vector" d="M19.8692 10.4781C19.87 9.79663 19.812 9.1164 19.6957 8.44482H10.2V12.296H15.6387C15.5274 12.9111 15.2919 13.4975 14.9462 14.0197C14.6006 14.542 14.1521 14.9893 13.6277 15.3348V17.8346H16.8736C18.7741 16.0944 19.8692 13.521 19.8692 10.4781Z" fill="#4285F4"/>
<path id="Vector_2" d="M10.1999 20.25C12.9172 20.25 15.2051 19.3639 16.8735 17.8362L13.6276 15.3364C12.7242 15.9447 11.5606 16.2919 10.1999 16.2919C7.57353 16.2919 5.34432 14.5336 4.54718 12.1643H1.20337V14.7406C2.04144 16.3967 3.32654 17.7889 4.91518 18.7618C6.50382 19.7347 8.33349 20.2499 10.1999 20.25Z" fill="#34A853"/>
<path id="Vector_3" d="M4.5471 12.1639C4.12568 10.9223 4.12568 9.57781 4.5471 8.33627V5.76001H1.20329C0.498276 7.15321 0.131104 8.69083 0.131104 10.2501C0.131104 11.8093 0.498276 13.3469 1.20329 14.7401L4.5471 12.1639Z" fill="#FBBC04"/>
<path id="Vector_4" d="M10.1999 4.20879C11.6359 4.18549 13.0234 4.72429 14.0626 5.70872L16.9365 2.85469C15.1141 1.15488 12.6999 0.221659 10.1999 0.250656C8.33349 0.250741 6.50382 0.765984 4.91518 1.73886C3.32654 2.71174 2.04144 4.10397 1.20337 5.7601L4.54718 8.33636C5.34432 5.96704 7.57353 4.20879 10.1999 4.20879Z" fill="#EA4335"/>
</g>
</g>
</svg>
