<svg width="40" height="40" viewBox="0 0 40 40" fill="none" xmlns="http://www.w3.org/2000/svg">
<g id="Iconsax">
<path id="Vector" d="M20.0002 3.33325C10.8168 3.33325 3.3335 10.8166 3.3335 19.9999C3.3335 29.1833 10.8168 36.6666 20.0002 36.6666C29.1835 36.6666 36.6668 29.1833 36.6668 19.9999C36.6668 10.8166 29.1835 3.33325 20.0002 3.33325ZM26.6668 21.2499H21.2502V26.6666C21.2502 27.3499 20.6835 27.9166 20.0002 27.9166C19.3168 27.9166 18.7502 27.3499 18.7502 26.6666V21.2499H13.3335C12.6502 21.2499 12.0835 20.6833 12.0835 19.9999C12.0835 19.3166 12.6502 18.7499 13.3335 18.7499H18.7502V13.3333C18.7502 12.6499 19.3168 12.0833 20.0002 12.0833C20.6835 12.0833 21.2502 12.6499 21.2502 13.3333V18.7499H26.6668C27.3502 18.7499 27.9168 19.3166 27.9168 19.9999C27.9168 20.6833 27.3502 21.2499 26.6668 21.2499Z" fill="#0D4EC8"/>
</g>
</svg>
